<svg class="main-svg" xmlns="http://www.w3.org/2000/svg" xmlns:xlink="http://www.w3.org/1999/xlink" width="1977" height="989" style="" viewBox="0 0 1977 989"><rect x="0" y="0" width="1977" height="989" style="fill: rgb(0, 0, 0); fill-opacity: 0;"/><defs id="defs-adcf6f"><g class="clips"><clipPath id="clipadcf6fxyplot" class="plotclip"><rect width="1977" height="989"/></clipPath><clipPath class="axesclip" id="clipadcf6fx"><rect x="0" y="0" width="1977" height="989"/></clipPath><clipPath class="axesclip" id="clipadcf6fy"><rect x="0" y="0" width="1977" height="989"/></clipPath><clipPath class="axesclip" id="clipadcf6fxy"><rect x="0" y="0" width="1977" height="989"/></clipPath></g><g class="gradients"/><g class="patterns"/></defs><g class="bglayer"><rect class="bg" x="0" y="0" width="1977" height="989" style="fill: rgb(0, 0, 0); fill-opacity: 0; stroke-width: 0;"/></g><g class="layer-below"><g class="imagelayer"/><g class="shapelayer"/></g><g class="cartesianlayer"><g class="subplot xy"><g class="layer-subplot"><g class="shapelayer"/><g class="imagelayer"/></g><g class="minor-gridlayer"><g class="x"/><g class="y"/></g><g class="gridlayer"><g class="x"/><g class="y"/></g><g class="zerolinelayer"/><g class="layer-between"><g class="shapelayer"/><g class="imagelayer"/></g><path class="xlines-below"/><path class="ylines-below"/><g class="overlines-below"/><g class="xaxislayer-below"/><g class="yaxislayer-below"/><g class="overaxes-below"/><g class="overplot"><g class="xy" transform="" clip-path="url(#clipadcf6fxyplot)"><g class="scatterlayer mlayer"><g class="trace scatter tracefd691a" style="stroke-miterlimit: 2; opacity: 1;"><g class="fills"/><g class="errorbars"/><g class="lines"><path class="js-line" d="M0,908.18L69.54,906.38L79.48,905.82L119.22,902.26L129.15,900.95L158.95,895.7L168.89,893.44L198.69,884.86L208.63,881.35L238.43,868.6L248.37,863.58L278.17,846.07L288.11,839.42L317.91,817.03L327.84,808.76L357.65,781.7L367.58,771.97L397.39,740.86L407.32,729.93L447.06,683.91L456.99,671.94L526.54,585.57L536.47,573.1L606.02,487.45L615.95,475.65L665.62,419.11L675.56,408.33L715.3,367.1L725.23,357.28L764.97,320.02L774.9,311.21L814.64,278.09L824.58,270.34L864.32,241.38L874.25,234.65L913.99,209.73L923.92,203.98L963.66,182.83L973.6,177.98L1013.34,160.17L1023.27,156.09L1072.94,137.6L1082.88,134.23L1132.55,118.97L1142.49,116.23L1192.16,103.88L1202.1,101.67L1261.7,90.05L1271.64,88.37L1341.18,78.22L1351.12,76.98L1430.59,68.52L1440.53,67.62L1529.94,60.9L1539.87,60.29L1649.16,55.01L1659.09,54.64L1808.11,50.4L1818.05,50.19L1977,47.8" style="vector-effect: none; fill: none; stroke: rgb(166, 220, 234); stroke-opacity: 1; stroke-width: 5px; opacity: 1;"/></g><g class="points"/><g class="text"/></g></g></g></g><g class="zerolinelayer-above"/><path class="xlines-above crisp" d="M0,0" style="fill: none;"/><path class="ylines-above crisp" d="M0,0" style="fill: none;"/><g class="overlines-above"/><g class="xaxislayer-above"/><g class="yaxislayer-above"/><g class="overaxes-above"/></g></g><g class="polarlayer"/><g class="smithlayer"/><g class="ternarylayer"/><g class="geolayer"/><g class="funnelarealayer"/><g class="pielayer"/><g class="iciclelayer"/><g class="treemaplayer"/><g class="sunburstlayer"/><g class="glimages"/><defs id="topdefs-adcf6f"><g class="clips"/></defs><g class="layer-above"><g class="imagelayer"/><g class="shapelayer"/></g><g class="infolayer"><g class="g-gtitle"/></g></svg>