<svg class="main-svg" xmlns="http://www.w3.org/2000/svg" xmlns:xlink="http://www.w3.org/1999/xlink" width="1977" height="989" style="" viewBox="0 0 1977 989"><rect x="0" y="0" width="1977" height="989" style="fill: rgb(0, 0, 0); fill-opacity: 0;"/><defs id="defs-373dd7"><g class="clips"><clipPath id="clip373dd7xyplot" class="plotclip"><rect width="1977" height="989"/></clipPath><clipPath class="axesclip" id="clip373dd7x"><rect x="0" y="0" width="1977" height="989"/></clipPath><clipPath class="axesclip" id="clip373dd7y"><rect x="0" y="0" width="1977" height="989"/></clipPath><clipPath class="axesclip" id="clip373dd7xy"><rect x="0" y="0" width="1977" height="989"/></clipPath></g><g class="gradients"/><g class="patterns"/></defs><g class="bglayer"><rect class="bg" x="0" y="0" width="1977" height="989" style="fill: rgb(0, 0, 0); fill-opacity: 0; stroke-width: 0;"/></g><g class="layer-below"><g class="imagelayer"/><g class="shapelayer"/></g><g class="cartesianlayer"><g class="subplot xy"><g class="layer-subplot"><g class="shapelayer"/><g class="imagelayer"/></g><g class="minor-gridlayer"><g class="x"/><g class="y"/></g><g class="gridlayer"><g class="x"/><g class="y"/></g><g class="zerolinelayer"/><g class="layer-between"><g class="shapelayer"/><g class="imagelayer"/></g><path class="xlines-below"/><path class="ylines-below"/><g class="overlines-below"/><g class="xaxislayer-below"/><g class="yaxislayer-below"/><g class="overaxes-below"/><g class="overplot"><g class="xy" transform="" clip-path="url(#clip373dd7xyplot)"><g class="scatterlayer mlayer"><g class="trace scatter trace7d49e4" style="stroke-miterlimit: 2; opacity: 1;"><g class="fills"/><g class="errorbars"/><g class="lines"><path class="js-line" d="M0,935.37L49.67,924.74L59.61,922.28L99.35,911.14L109.28,908.01L149.02,893.94L158.95,890.01L198.69,872.45L208.63,867.56L248.37,845.9L258.3,839.94L298.04,813.77L307.97,806.64L347.71,775.7L357.65,767.36L397.39,731.63L407.32,722.12L447.06,681.97L456.99,671.44L506.67,616.28L516.6,604.82L586.15,522.33L596.08,510.4L675.56,417L685.49,405.78L735.17,351.94L745.1,341.69L784.84,302.66L794.77,293.42L834.51,258.69L844.45,250.57L884.19,220.39L894.12,213.42L933.86,187.76L943.79,181.88L983.53,160.3L993.47,155.3L1033.21,136.96L1043.14,132.84L1082.88,118.33L1092.81,115.2L1132.55,104.54L1142.49,102.3L1192.16,93.06L1202.1,91.49L1361.05,67.17L1370.98,66.17L1420.66,62.78L1430.59,62.4L1569.68,58.51L1579.61,57.84L1669.03,53.03L1678.96,52.72L1748.5,51.87L1758.44,51.9L1867.72,51.55L1877.65,51.28L1977,49.23" style="vector-effect: none; fill: none; stroke: rgb(166, 220, 234); stroke-opacity: 1; stroke-width: 5px; opacity: 1;"/></g><g class="points"/><g class="text"/></g></g></g></g><g class="zerolinelayer-above"/><path class="xlines-above crisp" d="M0,0" style="fill: none;"/><path class="ylines-above crisp" d="M0,0" style="fill: none;"/><g class="overlines-above"/><g class="xaxislayer-above"/><g class="yaxislayer-above"/><g class="overaxes-above"/></g></g><g class="polarlayer"/><g class="smithlayer"/><g class="ternarylayer"/><g class="geolayer"/><g class="funnelarealayer"/><g class="pielayer"/><g class="iciclelayer"/><g class="treemaplayer"/><g class="sunburstlayer"/><g class="glimages"/><defs id="topdefs-373dd7"><g class="clips"/></defs><g class="layer-above"><g class="imagelayer"/><g class="shapelayer"/></g><g class="infolayer"><g class="g-gtitle"/></g></svg>