<svg class="main-svg" xmlns="http://www.w3.org/2000/svg" xmlns:xlink="http://www.w3.org/1999/xlink" width="1977" height="989" style="" viewBox="0 0 1977 989"><rect x="0" y="0" width="1977" height="989" style="fill: rgb(0, 0, 0); fill-opacity: 0;"/><defs id="defs-1547a1"><g class="clips"><clipPath id="clip1547a1xyplot" class="plotclip"><rect width="1977" height="989"/></clipPath><clipPath class="axesclip" id="clip1547a1x"><rect x="0" y="0" width="1977" height="989"/></clipPath><clipPath class="axesclip" id="clip1547a1y"><rect x="0" y="0" width="1977" height="989"/></clipPath><clipPath class="axesclip" id="clip1547a1xy"><rect x="0" y="0" width="1977" height="989"/></clipPath></g><g class="gradients"/><g class="patterns"/></defs><g class="bglayer"><rect class="bg" x="0" y="0" width="1977" height="989" style="fill: rgb(0, 0, 0); fill-opacity: 0; stroke-width: 0;"/></g><g class="layer-below"><g class="imagelayer"/><g class="shapelayer"/></g><g class="cartesianlayer"><g class="subplot xy"><g class="layer-subplot"><g class="shapelayer"/><g class="imagelayer"/></g><g class="minor-gridlayer"><g class="x"/><g class="y"/></g><g class="gridlayer"><g class="x"/><g class="y"/></g><g class="zerolinelayer"/><g class="layer-between"><g class="shapelayer"/><g class="imagelayer"/></g><path class="xlines-below"/><path class="ylines-below"/><g class="overlines-below"/><g class="xaxislayer-below"/><g class="yaxislayer-below"/><g class="overaxes-below"/><g class="overplot"><g class="xy" transform="" clip-path="url(#clip1547a1xyplot)"><g class="scatterlayer mlayer"><g class="trace scatter tracee6d769" style="stroke-miterlimit: 2; opacity: 1;"><g class="fills"/><g class="errorbars"/><g class="lines"><path class="js-line" d="M0,935.48L49.67,924.29L59.61,921.73L109.28,907L119.22,903.65L158.95,888.69L168.89,884.54L208.63,866.14L218.56,861.05L258.3,838.58L268.24,832.42L307.97,805.48L317.91,798.16L357.65,766.55L367.58,758.06L407.32,721.79L417.26,712.15L456.99,671.37L466.93,660.68L516.6,604.88L526.54,593.33L615.95,486.7L625.88,474.8L695.43,393.45L705.36,382.29L745.1,339.39L755.04,329.17L794.77,290.45L804.71,281.32L844.45,247.1L854.38,239.12L894.12,209.6L904.06,202.8L943.79,177.91L953.73,172.25L993.47,151.72L1003.4,147.09L1043.14,130.39L1053.08,126.63L1092.81,113.03L1102.75,109.97L1152.42,96.52L1162.36,94.19L1212.03,84.06L1221.96,82.32L1281.57,73.58L1291.51,72.37L1361.05,65.3L1370.98,64.46L1460.4,58.48L1470.33,57.97L1579.61,53.94L1589.55,53.68L1768.37,50.42L1778.31,50.32L1977,49.24" style="vector-effect: none; fill: none; stroke: rgb(166, 220, 234); stroke-opacity: 1; stroke-width: 5px; opacity: 1;"/></g><g class="points"/><g class="text"/></g></g></g></g><g class="zerolinelayer-above"/><path class="xlines-above crisp" d="M0,0" style="fill: none;"/><path class="ylines-above crisp" d="M0,0" style="fill: none;"/><g class="overlines-above"/><g class="xaxislayer-above"/><g class="yaxislayer-above"/><g class="overaxes-above"/></g></g><g class="polarlayer"/><g class="smithlayer"/><g class="ternarylayer"/><g class="geolayer"/><g class="funnelarealayer"/><g class="pielayer"/><g class="iciclelayer"/><g class="treemaplayer"/><g class="sunburstlayer"/><g class="glimages"/><defs id="topdefs-1547a1"><g class="clips"/></defs><g class="layer-above"><g class="imagelayer"/><g class="shapelayer"/></g><g class="infolayer"><g class="g-gtitle"/></g></svg>