<svg class="main-svg" xmlns="http://www.w3.org/2000/svg" xmlns:xlink="http://www.w3.org/1999/xlink" width="1977" height="989" style="" viewBox="0 0 1977 989"><rect x="0" y="0" width="1977" height="989" style="fill: rgb(0, 0, 0); fill-opacity: 0;"/><defs id="defs-4a3802"><g class="clips"><clipPath id="clip4a3802xyplot" class="plotclip"><rect width="1977" height="989"/></clipPath><clipPath class="axesclip" id="clip4a3802x"><rect x="0" y="0" width="1977" height="989"/></clipPath><clipPath class="axesclip" id="clip4a3802y"><rect x="0" y="0" width="1977" height="989"/></clipPath><clipPath class="axesclip" id="clip4a3802xy"><rect x="0" y="0" width="1977" height="989"/></clipPath></g><g class="gradients"/><g class="patterns"/></defs><g class="bglayer"><rect class="bg" x="0" y="0" width="1977" height="989" style="fill: rgb(0, 0, 0); fill-opacity: 0; stroke-width: 0;"/></g><g class="layer-below"><g class="imagelayer"/><g class="shapelayer"/></g><g class="cartesianlayer"><g class="subplot xy"><g class="layer-subplot"><g class="shapelayer"/><g class="imagelayer"/></g><g class="minor-gridlayer"><g class="x"/><g class="y"/></g><g class="gridlayer"><g class="x"/><g class="y"/></g><g class="zerolinelayer"/><g class="layer-between"><g class="shapelayer"/><g class="imagelayer"/></g><path class="xlines-below"/><path class="ylines-below"/><g class="overlines-below"/><g class="xaxislayer-below"/><g class="yaxislayer-below"/><g class="overaxes-below"/><g class="overplot"><g class="xy" transform="" clip-path="url(#clip4a3802xyplot)"><g class="scatterlayer mlayer"><g class="trace scatter trace0c0625" style="stroke-miterlimit: 2; opacity: 1;"><g class="fills"/><g class="errorbars"/><g class="lines"><path class="js-line" d="M0,935.86L49.67,924.63L59.61,922.06L99.35,910.52L109.28,907.29L149.02,892.92L158.95,888.93L198.69,871.19L208.63,866.28L248.37,844.62L258.3,838.67L298.04,812.64L307.97,805.56L347.71,774.9L357.65,766.65L397.39,731.25L407.32,721.82L447.06,681.96L456.99,671.5L506.67,616.57L516.6,605.15L586.15,522.5L596.08,510.5L675.56,415.92L685.49,404.54L735.17,349.94L745.1,339.55L784.84,299.99L794.77,290.63L834.51,255.49L844.45,247.28L884.19,216.85L894.12,209.83L933.86,184.1L943.79,178.23L983.53,156.88L993.47,152.04L1033.21,134.5L1043.14,130.54L1082.88,116.31L1092.81,113.13L1132.55,101.74L1142.49,99.2L1192.16,88.18L1202.1,86.27L1261.7,76.51L1271.64,75.13L1341.18,67.19L1351.12,66.27L1430.59,60.37L1440.53,59.79L1549.81,54.79L1559.74,54.45L1678.96,51.73L1688.89,51.59L1927.33,49.47L1937.26,49.43L1977,49.26" style="vector-effect: none; fill: none; stroke: rgb(166, 220, 234); stroke-opacity: 1; stroke-width: 5px; opacity: 1;"/></g><g class="points"/><g class="text"/></g></g></g></g><g class="zerolinelayer-above"/><path class="xlines-above crisp" d="M0,0" style="fill: none;"/><path class="ylines-above crisp" d="M0,0" style="fill: none;"/><g class="overlines-above"/><g class="xaxislayer-above"/><g class="yaxislayer-above"/><g class="overaxes-above"/></g></g><g class="polarlayer"/><g class="smithlayer"/><g class="ternarylayer"/><g class="geolayer"/><g class="funnelarealayer"/><g class="pielayer"/><g class="iciclelayer"/><g class="treemaplayer"/><g class="sunburstlayer"/><g class="glimages"/><defs id="topdefs-4a3802"><g class="clips"/></defs><g class="layer-above"><g class="imagelayer"/><g class="shapelayer"/></g><g class="infolayer"><g class="g-gtitle"/></g></svg>