<svg class="main-svg" xmlns="http://www.w3.org/2000/svg" xmlns:xlink="http://www.w3.org/1999/xlink" width="1977" height="989" style="" viewBox="0 0 1977 989"><rect x="0" y="0" width="1977" height="989" style="fill: rgb(0, 0, 0); fill-opacity: 0;"/><defs id="defs-66d961"><g class="clips"><clipPath id="clip66d961xyplot" class="plotclip"><rect width="1977" height="989"/></clipPath><clipPath class="axesclip" id="clip66d961x"><rect x="0" y="0" width="1977" height="989"/></clipPath><clipPath class="axesclip" id="clip66d961y"><rect x="0" y="0" width="1977" height="989"/></clipPath><clipPath class="axesclip" id="clip66d961xy"><rect x="0" y="0" width="1977" height="989"/></clipPath></g><g class="gradients"/><g class="patterns"/></defs><g class="bglayer"><rect class="bg" x="0" y="0" width="1977" height="989" style="fill: rgb(0, 0, 0); fill-opacity: 0; stroke-width: 0;"/></g><g class="layer-below"><g class="imagelayer"/><g class="shapelayer"/></g><g class="cartesianlayer"><g class="subplot xy"><g class="layer-subplot"><g class="shapelayer"/><g class="imagelayer"/></g><g class="minor-gridlayer"><g class="x"/><g class="y"/></g><g class="gridlayer"><g class="x"/><g class="y"/></g><g class="zerolinelayer"/><g class="layer-between"><g class="shapelayer"/><g class="imagelayer"/></g><path class="xlines-below"/><path class="ylines-below"/><g class="overlines-below"/><g class="xaxislayer-below"/><g class="yaxislayer-below"/><g class="overaxes-below"/><g class="overplot"><g class="xy" transform="" clip-path="url(#clip66d961xyplot)"><g class="scatterlayer mlayer"><g class="trace scatter tracedbb820" style="stroke-miterlimit: 2; opacity: 1;"><g class="fills"/><g class="errorbars"/><g class="lines"><path class="js-line" d="M0,914.92L49.67,910.42L59.61,909.17L99.35,902.76L109.28,900.76L149.02,890.9L158.95,887.92L188.76,877.64L198.69,873.73L228.5,860.43L238.43,855.46L268.24,838.8L278.17,832.66L307.97,812.39L317.91,805.02L347.71,781.07L357.65,772.48L387.45,744.96L397.39,735.23L437.13,693.79L447.06,682.86L496.73,625.52L506.67,613.63L665.62,421.52L675.56,410.19L725.23,356.09L735.17,345.84L774.9,306.86L784.84,297.65L824.58,263L834.51,254.89L874.25,224.64L884.19,217.62L923.92,191.63L933.86,185.63L973.6,163.59L983.53,158.54L1023.27,140.07L1033.21,135.86L1072.94,120.55L1082.88,117.08L1132.55,101.66L1142.49,98.94L1192.16,86.93L1202.1,84.82L1261.7,73.99L1271.64,72.45L1331.25,64.64L1341.18,63.55L1410.72,57.31L1420.66,56.6L1510.07,51.79L1520.01,51.41L1619.35,48.89L1629.29,48.75L1768.37,48.25L1778.31,48.3L1977,50.75" style="vector-effect: none; fill: none; stroke: rgb(166, 220, 234); stroke-opacity: 1; stroke-width: 5px; opacity: 1;"/></g><g class="points"/><g class="text"/></g></g></g></g><g class="zerolinelayer-above"/><path class="xlines-above crisp" d="M0,0" style="fill: none;"/><path class="ylines-above crisp" d="M0,0" style="fill: none;"/><g class="overlines-above"/><g class="xaxislayer-above"/><g class="yaxislayer-above"/><g class="overaxes-above"/></g></g><g class="polarlayer"/><g class="smithlayer"/><g class="ternarylayer"/><g class="geolayer"/><g class="funnelarealayer"/><g class="pielayer"/><g class="iciclelayer"/><g class="treemaplayer"/><g class="sunburstlayer"/><g class="glimages"/><defs id="topdefs-66d961"><g class="clips"/></defs><g class="layer-above"><g class="imagelayer"/><g class="shapelayer"/></g><g class="infolayer"><g class="g-gtitle"/></g></svg>