<svg class="main-svg" xmlns="http://www.w3.org/2000/svg" xmlns:xlink="http://www.w3.org/1999/xlink" width="1977" height="989" style="" viewBox="0 0 1977 989"><rect x="0" y="0" width="1977" height="989" style="fill: rgb(0, 0, 0); fill-opacity: 0;"/><defs id="defs-a1245d"><g class="clips"><clipPath id="clipa1245dxyplot" class="plotclip"><rect width="1977" height="989"/></clipPath><clipPath class="axesclip" id="clipa1245dx"><rect x="0" y="0" width="1977" height="989"/></clipPath><clipPath class="axesclip" id="clipa1245dy"><rect x="0" y="0" width="1977" height="989"/></clipPath><clipPath class="axesclip" id="clipa1245dxy"><rect x="0" y="0" width="1977" height="989"/></clipPath></g><g class="gradients"/><g class="patterns"/></defs><g class="bglayer"><rect class="bg" x="0" y="0" width="1977" height="989" style="fill: rgb(0, 0, 0); fill-opacity: 0; stroke-width: 0;"/></g><g class="layer-below"><g class="imagelayer"/><g class="shapelayer"/></g><g class="cartesianlayer"><g class="subplot xy"><g class="layer-subplot"><g class="shapelayer"/><g class="imagelayer"/></g><g class="minor-gridlayer"><g class="x"/><g class="y"/></g><g class="gridlayer"><g class="x"/><g class="y"/></g><g class="zerolinelayer"/><g class="layer-between"><g class="shapelayer"/><g class="imagelayer"/></g><path class="xlines-below"/><path class="ylines-below"/><g class="overlines-below"/><g class="xaxislayer-below"/><g class="yaxislayer-below"/><g class="overaxes-below"/><g class="overplot"><g class="xy" transform="" clip-path="url(#clipa1245dxyplot)"><g class="scatterlayer mlayer"><g class="trace scatter trace12536a" style="stroke-miterlimit: 2; opacity: 1;"><g class="fills"/><g class="errorbars"/><g class="lines"><path class="js-line" d="M0,910.25L59.61,901.56L69.54,899.82L119.22,889.46L129.15,887.02L168.89,875.83L178.82,872.64L218.56,858L228.5,853.84L258.3,839.99L268.24,834.9L298.04,818.05L307.97,811.89L337.78,791.66L347.71,784.32L377.52,760.44L387.45,751.85L417.26,724.23L427.19,714.41L466.93,672.26L476.86,661.05L516.6,613.96L526.54,601.71L586.15,525.68L596.08,512.8L675.56,411.53L685.49,399.39L725.23,352.73L735.17,341.6L774.9,299.53L784.84,289.65L824.58,252.83L834.51,244.31L874.25,212.91L884.19,205.72L923.92,179.49L933.86,173.54L973.6,152.02L983.53,147.17L1023.27,129.74L1033.21,125.84L1072.94,111.89L1082.88,108.78L1132.55,95.25L1142.49,92.91L1192.16,82.75L1202.1,81L1261.7,72.12L1271.64,70.89L1341.18,63.76L1351.12,62.94L1430.59,57.64L1440.53,57.12L1549.81,52.85L1559.74,52.57L1718.7,49.6L1728.63,49.48L1977,47.91" style="vector-effect: none; fill: none; stroke: rgb(166, 220, 234); stroke-opacity: 1; stroke-width: 5px; opacity: 1;"/></g><g class="points"/><g class="text"/></g></g></g></g><g class="zerolinelayer-above"/><path class="xlines-above crisp" d="M0,0" style="fill: none;"/><path class="ylines-above crisp" d="M0,0" style="fill: none;"/><g class="overlines-above"/><g class="xaxislayer-above"/><g class="yaxislayer-above"/><g class="overaxes-above"/></g></g><g class="polarlayer"/><g class="smithlayer"/><g class="ternarylayer"/><g class="geolayer"/><g class="funnelarealayer"/><g class="pielayer"/><g class="iciclelayer"/><g class="treemaplayer"/><g class="sunburstlayer"/><g class="glimages"/><defs id="topdefs-a1245d"><g class="clips"/></defs><g class="layer-above"><g class="imagelayer"/><g class="shapelayer"/></g><g class="infolayer"><g class="g-gtitle"/></g></svg>