<svg class="main-svg" xmlns="http://www.w3.org/2000/svg" xmlns:xlink="http://www.w3.org/1999/xlink" width="1977" height="989" style="" viewBox="0 0 1977 989"><rect x="0" y="0" width="1977" height="989" style="fill: rgb(0, 0, 0); fill-opacity: 0;"/><defs id="defs-f14872"><g class="clips"><clipPath id="clipf14872xyplot" class="plotclip"><rect width="1977" height="989"/></clipPath><clipPath class="axesclip" id="clipf14872x"><rect x="0" y="0" width="1977" height="989"/></clipPath><clipPath class="axesclip" id="clipf14872y"><rect x="0" y="0" width="1977" height="989"/></clipPath><clipPath class="axesclip" id="clipf14872xy"><rect x="0" y="0" width="1977" height="989"/></clipPath></g><g class="gradients"/><g class="patterns"/></defs><g class="bglayer"><rect class="bg" x="0" y="0" width="1977" height="989" style="fill: rgb(0, 0, 0); fill-opacity: 0; stroke-width: 0;"/></g><g class="layer-below"><g class="imagelayer"/><g class="shapelayer"/></g><g class="cartesianlayer"><g class="subplot xy"><g class="layer-subplot"><g class="shapelayer"/><g class="imagelayer"/></g><g class="minor-gridlayer"><g class="x"/><g class="y"/></g><g class="gridlayer"><g class="x"/><g class="y"/></g><g class="zerolinelayer"/><g class="layer-between"><g class="shapelayer"/><g class="imagelayer"/></g><path class="xlines-below"/><path class="ylines-below"/><g class="overlines-below"/><g class="xaxislayer-below"/><g class="yaxislayer-below"/><g class="overaxes-below"/><g class="overplot"><g class="xy" transform="" clip-path="url(#clipf14872xyplot)"><g class="scatterlayer mlayer"><g class="trace scatter tracec15b81" style="stroke-miterlimit: 2; opacity: 1;"><g class="fills"/><g class="errorbars"/><g class="lines"><path class="js-line" d="M0,919.29L49.67,914.96L59.61,913.75L99.35,907.48L109.28,905.51L149.02,895.74L158.95,892.77L188.76,882.48L198.69,878.55L228.5,865.16L238.43,860.13L268.24,843.26L278.17,837.02L307.97,816.41L317.91,808.9L347.71,784.48L357.65,775.72L387.45,747.65L397.39,737.73L437.13,695.5L447.06,684.38L496.73,626.19L506.67,614.16L655.69,433.35L665.62,422.01L715.3,367.89L725.23,357.65L764.97,318.78L774.9,309.6L814.64,275.14L824.58,267.08L864.32,237.06L874.25,230.09L913.99,204.32L923.92,198.38L963.66,176.52L973.6,171.51L1013.34,153.15L1023.27,148.96L1063.01,133.67L1072.94,130.19L1122.62,114.68L1132.55,111.92L1182.23,99.65L1192.16,97.48L1251.77,86.14L1261.7,84.5L1331.25,74.77L1341.18,73.6L1420.66,65.79L1430.59,64.99L1520.01,59.11L1529.94,58.58L1649.16,53.77L1659.09,53.47L1818.05,50.08L1827.98,49.93L1977,48.38" style="vector-effect: none; fill: none; stroke: rgb(166, 220, 234); stroke-opacity: 1; stroke-width: 5px; opacity: 1;"/></g><g class="points"/><g class="text"/></g></g></g></g><g class="zerolinelayer-above"/><path class="xlines-above crisp" d="M0,0" style="fill: none;"/><path class="ylines-above crisp" d="M0,0" style="fill: none;"/><g class="overlines-above"/><g class="xaxislayer-above"/><g class="yaxislayer-above"/><g class="overaxes-above"/></g></g><g class="polarlayer"/><g class="smithlayer"/><g class="ternarylayer"/><g class="geolayer"/><g class="funnelarealayer"/><g class="pielayer"/><g class="iciclelayer"/><g class="treemaplayer"/><g class="sunburstlayer"/><g class="glimages"/><defs id="topdefs-f14872"><g class="clips"/></defs><g class="layer-above"><g class="imagelayer"/><g class="shapelayer"/></g><g class="infolayer"><g class="g-gtitle"/></g></svg>