<svg class="main-svg" xmlns="http://www.w3.org/2000/svg" xmlns:xlink="http://www.w3.org/1999/xlink" width="1977" height="989" style="" viewBox="0 0 1977 989"><rect x="0" y="0" width="1977" height="989" style="fill: rgb(0, 0, 0); fill-opacity: 0;"/><defs id="defs-558757"><g class="clips"><clipPath id="clip558757xyplot" class="plotclip"><rect width="1977" height="989"/></clipPath><clipPath class="axesclip" id="clip558757x"><rect x="0" y="0" width="1977" height="989"/></clipPath><clipPath class="axesclip" id="clip558757y"><rect x="0" y="0" width="1977" height="989"/></clipPath><clipPath class="axesclip" id="clip558757xy"><rect x="0" y="0" width="1977" height="989"/></clipPath></g><g class="gradients"/><g class="patterns"/></defs><g class="bglayer"><rect class="bg" x="0" y="0" width="1977" height="989" style="fill: rgb(0, 0, 0); fill-opacity: 0; stroke-width: 0;"/></g><g class="layer-below"><g class="imagelayer"/><g class="shapelayer"/></g><g class="cartesianlayer"><g class="subplot xy"><g class="layer-subplot"><g class="shapelayer"/><g class="imagelayer"/></g><g class="minor-gridlayer"><g class="x"/><g class="y"/></g><g class="gridlayer"><g class="x"/><g class="y"/></g><g class="zerolinelayer"/><g class="layer-between"><g class="shapelayer"/><g class="imagelayer"/></g><path class="xlines-below"/><path class="ylines-below"/><g class="overlines-below"/><g class="xaxislayer-below"/><g class="yaxislayer-below"/><g class="overaxes-below"/><g class="overplot"><g class="xy" transform="" clip-path="url(#clip558757xyplot)"><g class="scatterlayer mlayer"><g class="trace scatter trace60c9cc" style="stroke-miterlimit: 2; opacity: 1;"><g class="fills"/><g class="errorbars"/><g class="lines"><path class="js-line" d="M0,923.97L49.67,916.88L59.61,915.15L99.35,906.98L109.28,904.59L149.02,893.4L158.95,890.16L198.69,875.13L208.63,870.82L238.43,856.43L248.37,851.12L278.17,833.55L288.11,827.13L317.91,806.11L327.84,798.52L357.65,773.93L367.58,765.15L407.32,727.2L417.26,717.04L456.99,674.06L466.93,662.8L516.6,604.1L526.54,592.01L655.69,434.77L665.62,423.25L715.3,368.16L725.23,357.71L764.97,318.01L774.9,308.64L814.64,273.43L824.58,265.2L864.32,234.58L874.25,227.49L913.99,201.29L923.92,195.27L963.66,173.16L973.6,168.11L1013.34,149.66L1023.27,145.46L1063.01,130.21L1072.94,126.75L1122.62,111.4L1132.55,108.69L1182.23,96.68L1192.16,94.56L1251.77,83.58L1261.7,82.01L1321.31,73.88L1331.25,72.72L1410.72,65.06L1420.66,64.28L1520.01,58.12L1529.94,57.64L1649.16,53.3L1659.09,53.03L1827.98,49.94L1837.91,49.83L1977,48.63" style="vector-effect: none; fill: none; stroke: rgb(166, 220, 234); stroke-opacity: 1; stroke-width: 5px; opacity: 1;"/></g><g class="points"/><g class="text"/></g></g></g></g><g class="zerolinelayer-above"/><path class="xlines-above crisp" d="M0,0" style="fill: none;"/><path class="ylines-above crisp" d="M0,0" style="fill: none;"/><g class="overlines-above"/><g class="xaxislayer-above"/><g class="yaxislayer-above"/><g class="overaxes-above"/></g></g><g class="polarlayer"/><g class="smithlayer"/><g class="ternarylayer"/><g class="geolayer"/><g class="funnelarealayer"/><g class="pielayer"/><g class="iciclelayer"/><g class="treemaplayer"/><g class="sunburstlayer"/><g class="glimages"/><defs id="topdefs-558757"><g class="clips"/></defs><g class="layer-above"><g class="imagelayer"/><g class="shapelayer"/></g><g class="infolayer"><g class="g-gtitle"/></g></svg>